<svg width="34" height="38" viewBox="0 0 34 38" fill="none" xmlns="http://www.w3.org/2000/svg">
<path fill-rule="evenodd" clip-rule="evenodd" d="M21.5 33.5526C21.5 35.7327 19.4853 37.5 17 37.5C14.6141 37.5 12.6619 35.8713 12.5096 33.8122L12.5 33.5526H21.5ZM16.9838 0C23.41 0 27.4887 4.53958 28.6194 11.8317L30.181 23.3491C31.2807 27.6109 33.5 26.1558 33.5 28.4928C33.5 29.98 32.0507 30.677 29.1522 30.5839L28.7282 30.5652H5.27176L4.84782 30.5839C1.94927 30.677 0.5 29.98 0.5 28.4928C0.5 26.2392 2.56361 27.5118 3.69702 23.7843L3.81897 23.3491C3.81897 23.3491 5.03066 14.6697 5.38055 11.8317C6.4823 4.72655 10.3828 0.234608 16.5265 0.00892367L16.9838 0Z" fill="white"/>
</svg>
