<svg width="48" height="27" viewBox="0 0 48 27" fill="none" xmlns="http://www.w3.org/2000/svg">
<path fill-rule="evenodd" clip-rule="evenodd" d="M34.5 0C41.9558 0 48 6.04416 48 13.5C48 20.9558 41.9558 27 34.5 27H13.5C6.04416 27 0 20.9558 0 13.5C0 6.04416 6.04416 0 13.5 0H34.5ZM12 7.5L11.8555 7.50687C11.1424 7.57501 10.575 8.14243 10.5069 8.85554L10.5 9V12H7.5L7.35554 12.0069C6.64243 12.075 6.07501 12.6424 6.00687 13.3555L6 13.5L6.00687 13.6445C6.07501 14.3576 6.64243 14.925 7.35554 14.9931L7.5 15H10.5V18L10.5069 18.1445C10.575 18.8576 11.1424 19.425 11.8555 19.4931L12 19.5L12.1445 19.4931C12.8576 19.425 13.425 18.8576 13.4931 18.1445L13.5 18V15H16.5L16.6445 14.9931C17.3576 14.925 17.925 14.3576 17.9931 13.6445L18 13.5L17.9931 13.3555C17.925 12.6424 17.3576 12.075 16.6445 12.0069L16.5 12H13.5V9L13.4931 8.85554C13.425 8.14243 12.8576 7.57501 12.1445 7.50687L12 7.5ZM33 13.5C31.3431 13.5 30 14.8431 30 16.5C30 18.1569 31.3431 19.5 33 19.5C34.6569 19.5 36 18.1569 36 16.5C36 14.8431 34.6569 13.5 33 13.5ZM39 7.5C37.3431 7.5 36 8.84315 36 10.5C36 12.1569 37.3431 13.5 39 13.5C40.6569 13.5 42 12.1569 42 10.5C42 8.84315 40.6569 7.5 39 7.5Z" fill="white"/>
</svg>
