<svg width="40" height="37" viewBox="0 0 40 37" fill="none" xmlns="http://www.w3.org/2000/svg">
<path fill-rule="evenodd" clip-rule="evenodd" d="M21.5 0.5C23.7209 0.5 25.6599 1.70661 26.6973 3.50004L33.5 3.5C36.8137 3.5 39.5 6.18629 39.5 9.5V30.5C39.5 33.8137 36.8137 36.5 33.5 36.5H18.5C16.2796 36.5 14.3408 35.2938 13.3033 33.501L6.5 33.5C3.18629 33.5 0.5 30.8137 0.5 27.5V6.5C0.5 3.18629 3.18629 0.5 6.5 0.5H21.5ZM20.8186 11.9272C19.9373 11.9272 19.4177 12.4653 19.4177 13.3931V24.2197C19.4177 25.1382 19.9373 25.6763 20.8186 25.6763C21.7 25.6763 22.2195 25.1382 22.2195 24.2197V13.3931C22.2195 12.4653 21.7 11.9272 20.8186 11.9272ZM33.0996 12.1128H26.8374C26.0079 12.1128 25.4989 12.5894 25.4419 13.4112L25.4365 13.5693V24.2197C25.4365 25.1382 25.9561 25.6763 26.8374 25.6763C27.6669 25.6763 28.1759 25.1996 28.2329 24.3778L28.2383 24.2197V20.2305H32.645C33.3779 20.2305 33.8418 19.813 33.8418 19.1172C33.8418 18.4764 33.4296 18.07 32.7863 18.0187L32.645 18.0132H28.2383V14.4321H33.0996C33.8604 14.4321 34.3706 13.9961 34.3706 13.2725C34.3706 12.5941 33.9303 12.1684 33.2408 12.1179L33.0996 12.1128ZM10.5786 11.3809C6.64502 11.3809 4.1958 13.9785 4.1958 18.2646C4.1958 22.6157 6.64502 25.2227 10.6436 25.2227C14.4194 25.2227 16.5811 22.9312 16.5811 19.5264V19.3223C16.5811 18.4038 16.0615 17.8657 15.1802 17.8657H11.9053C11.228 17.8657 10.7827 18.2461 10.7827 18.8862C10.7827 19.5264 11.2373 19.9067 11.9053 19.9067H13.8535L13.8442 20.1201C13.7886 21.7808 12.5176 22.9033 10.6899 22.9033C8.46338 22.9033 7.05322 21.1313 7.05322 18.2275C7.05322 15.3794 8.37988 13.7002 10.5879 13.7002C11.9053 13.7002 12.8794 14.2847 13.5381 15.4814C13.8813 16.0474 14.2988 16.2979 14.8926 16.2979C15.6255 16.2979 16.1172 15.8062 16.1172 15.0918C16.1172 14.8228 16.0708 14.5537 15.9131 14.229C15.1616 12.5869 13.1484 11.3809 10.5786 11.3809Z" fill="white"/>
</svg>
