<svg width="16" height="17" viewBox="0 0 16 17" fill="none" xmlns="http://www.w3.org/2000/svg">
<path fill-rule="evenodd" clip-rule="evenodd" d="M8 0.5C12.4183 0.5 16 4.08172 16 8.5C16 12.9183 12.4183 16.5 8 16.5C3.58172 16.5 0 12.9183 0 8.5C0 4.08172 3.58172 0.5 8 0.5ZM8 2.5C4.68629 2.5 2 5.18629 2 8.5C2 11.8137 4.68629 14.5 8 14.5C11.3137 14.5 14 11.8137 14 8.5C14 5.18629 11.3137 2.5 8 2.5ZM10.4188 5.53912L6.68587 9.27209L5.20668 7.79289L5.11247 7.7097C4.72018 7.40468 4.15295 7.43241 3.79246 7.79289C3.40194 8.18342 3.40194 8.81658 3.79246 9.20711L5.97876 11.3934L6.07297 11.4766C6.46526 11.7816 7.03249 11.7539 7.39298 11.3934L11.8331 6.95333L11.9162 6.85913C12.2213 6.46683 12.1935 5.8996 11.8331 5.53912C11.4425 5.1486 10.8094 5.1486 10.4188 5.53912Z" fill="#B0B7C3"/>
</svg>
