<svg width="22" height="22" viewBox="0 0 22 22" fill="none" xmlns="http://www.w3.org/2000/svg">
<path d="M10.8722 0.756454L11 0.75C11.6472 0.75 12.1795 1.24187 12.2435 1.87219L12.25 2V9.75H20C20.6472 9.75 21.1795 10.2419 21.2435 10.8722L21.25 11C21.25 11.6472 20.7581 12.1795 20.1278 12.2435L20 12.25H12.25V20C12.25 20.6472 11.7581 21.1795 11.1278 21.2435L11 21.25C10.3528 21.25 9.82047 20.7581 9.75645 20.1278L9.75 20V12.25H2C1.35279 12.25 0.820466 11.7581 0.756454 11.1278L0.75 11C0.75 10.3528 1.24187 9.82047 1.87219 9.75645L2 9.75H9.75V2C9.75 1.35279 10.2419 0.820466 10.8722 0.756454L11 0.75L10.8722 0.756454Z" fill="#19232C"/>
</svg>
