<svg width="24" height="26" viewBox="0 0 24 26" fill="none" xmlns="http://www.w3.org/2000/svg">
<path fill-rule="evenodd" clip-rule="evenodd" d="M3.9826 12.1183C4.60828 12.1183 5.11549 12.6264 5.11549 13.2531V24.3652C5.11549 24.9919 4.60828 25.5 3.9826 25.5H1.9483C1.60323 25.5 1.28302 25.331 1.08729 25.0527L1.01992 24.9434C0.339974 23.673 0 21.6282 0 18.8091C0 16.0561 0.324241 14.0415 0.972724 12.7654L1.08381 12.5596C1.24029 12.2866 1.53054 12.1183 1.84478 12.1183H3.9826ZM12.156 0.507616C14.7645 0.848219 16.0687 2.51757 16.0687 5.51567C16.0687 6.12163 15.9057 7.4777 15.5796 9.58388C20.8973 9.69497 23.4034 10.6384 23.4034 12.4143C23.4034 12.8519 23.2913 13.2709 22.7617 13.6714C23.5872 14.1761 24 14.8946 24 15.8271C24 16.7595 23.5254 17.5221 22.5762 18.1148C23.0328 18.6306 23.2038 19.2325 23.0891 19.9205C22.9745 20.6084 22.455 21.1254 21.5308 21.4713C21.9798 23.4147 19.7908 24.3864 14.964 24.3864C7.85305 24.3864 7.18481 22.6039 7.16322 21.0009L7.16264 14.5401C7.08978 13.0657 7.51995 11.8273 8.45317 10.8249L8.64653 10.6276C10.3 9.02263 11.1936 7.418 11.3273 5.81371L11.1334 1.44815C11.1112 0.947279 11.4985 0.523179 11.9986 0.500897C12.0511 0.498554 12.1038 0.500803 12.156 0.507616Z" fill="#0061FF"/>
</svg>
