<svg width="16" height="15" viewBox="0 0 16 15" fill="none" xmlns="http://www.w3.org/2000/svg">
<path fill-rule="evenodd" clip-rule="evenodd" d="M12.5 6.25C12.5 2.93629 9.81371 0.25 6.5 0.25C3.18629 0.25 0.5 2.93629 0.5 6.25C0.5 9.56371 3.18629 12.25 6.5 12.25C7.63099 12.25 8.6889 11.9371 9.59186 11.3931L9.65384 11.3548C9.86382 11.2223 10.139 11.2623 10.3025 11.4492L12.9017 14.4194L13.0031 14.5105C13.494 14.9054 14.2138 14.875 14.6694 14.4194C15.1576 13.9313 15.1576 13.1398 14.6694 12.6517L11.7017 10.1075L11.6336 10.0375C11.4922 9.86253 11.4736 9.61293 11.5972 9.41661L11.7606 9.13777C12.2319 8.28107 12.5 7.29684 12.5 6.25ZM2.5 6.25C2.5 4.04086 4.29086 2.25 6.5 2.25C8.70914 2.25 10.5 4.04086 10.5 6.25C10.5 8.45914 8.70914 10.25 6.5 10.25C4.29086 10.25 2.5 8.45914 2.5 6.25Z" fill="#323B4B"/>
</svg>
